<?xml version="1.0" encoding="UTF-8"?>
<svg version="1.1" xmlns="http://www.w3.org/2000/svg" width="225" height="224">
<path d="M0 0 C74.25 0 148.5 0 225 0 C225 73.92 225 147.84 225 224 C150.75 224 76.5 224 0 224 C0 150.08 0 76.16 0 0 Z " fill="#040302" transform="translate(0,0)"/>
<path d="M0 0 C74.25 0 148.5 0 225 0 C225 73.92 225 147.84 225 224 C150.75 224 76.5 224 0 224 C0 207.83 0 191.66 0 175 C0.33 175 0.66 175 1 175 C1.14695313 175.75023437 1.29390625 176.50046875 1.4453125 177.2734375 C3.10054352 184.82661814 5.53791634 190.6915369 10 197 C10.44085938 197.63679687 10.88171875 198.27359375 11.3359375 198.9296875 C18.23056957 207.89669453 30.05513326 213.71671801 41 216 C42.89741276 216.09252655 44.79776865 216.13055968 46.69743347 216.13371277 C47.8594931 216.13797775 49.02155273 216.14224274 50.21882629 216.14663696 C51.49005844 216.14618378 52.76129059 216.14573059 54.07104492 216.14526367 C55.42647392 216.14825667 56.78190207 216.15165953 58.1373291 216.15544128 C61.8173358 216.16427371 65.49731923 216.16661915 69.1773355 216.16725707 C71.47901319 216.1679683 73.78068499 216.17010406 76.08236122 216.17275429 C84.11977132 216.18200702 92.15716483 216.18608949 100.19458008 216.18530273 C107.67329286 216.18470279 115.15193332 216.19523843 122.63062781 216.2110464 C129.06052335 216.22415054 135.49039534 216.22948539 141.92030412 216.22884732 C145.75638102 216.22859307 149.59239372 216.23140373 153.42845726 216.24202538 C157.04081288 216.25175417 160.65304356 216.251753 164.26540375 216.24450874 C166.21145233 216.24297549 168.15750102 216.25127723 170.10353088 216.25994873 C185.01394187 216.20677432 198.56957704 212.4263487 209.87109375 202.328125 C218.13782557 193.71157602 223.08950199 182.40486825 223.3125 170.5625 C223.36857422 168.61537109 223.36857422 168.61537109 223.42578125 166.62890625 C222.93576448 162.45252483 221.99320818 160.89147123 219 158 C215.87866256 156.65227097 215.87866256 156.65227097 213 156 C212.21120373 145.99105173 212.21120373 145.99105173 215.4375 141.9375 C216.283125 141.298125 217.12875 140.65875 218 140 C220.59821258 134.80357484 218.53971888 129.23504418 217 124 C217.33 123.34 217.66 122.68 218 122 C218.53365513 116.18654053 218.53365513 116.18654053 216.125 111.0625 C214.17402388 108.96116416 214.17402388 108.96116416 212 108 C211.89192581 104.83882994 212.00123858 102.01720074 213 99 C214.96772449 97.50798913 216.76016756 96.74832728 219.08984375 95.94921875 C221.64578207 94.67908989 222.09118852 93.68971479 223 91 C224.94566456 75.65997097 218.8592603 59.79690608 210.12109375 47.31640625 C208.15981155 44.7947577 206.12310751 42.38647008 204 40 C203.40703125 39.31292969 202.8140625 38.62585937 202.203125 37.91796875 C184.78845892 19.0520805 155.89018144 10.43891382 131 9 C124.96030575 8.78488243 118.91977204 8.7305715 112.87670898 8.70483398 C111.01660518 8.69337676 109.15653259 8.67302563 107.29663086 8.64331055 C90.08004194 8.36988588 72.86831403 9.91457886 56.75 16.4375 C55.97479004 16.73897949 55.19958008 17.04045898 54.40087891 17.35107422 C46.1527874 20.27301052 46.1527874 20.27301052 39 25 C38.24244784 27.5761941 38.24244784 27.5761941 38 30 C41.96960874 28.76256024 45.72453348 27.27159336 49.50317383 25.53808594 C57.49479164 21.88376993 65.41129444 18.97357489 74 17 C75.25296875 16.7009375 76.5059375 16.401875 77.796875 16.09375 C112.4219144 8.82878422 154.44212527 12.44325856 185 31 C188.56219976 33.45135589 191.81381385 36.08031641 195 39 C195.63164062 39.56332031 196.26328125 40.12664063 196.9140625 40.70703125 C208.73838924 51.82814914 217.6097243 68.56890317 218.4375 84.9375 C218.51684957 87.76763478 218.16551055 88.77204256 216.48141479 91.0915451 C213.04390898 93.73532913 209.96387572 93.55559139 205.80126953 93.50793457 C204.96762941 93.51417453 204.1339893 93.5204145 203.27508736 93.52684355 C200.47737601 93.54281812 197.68053054 93.53015201 194.8828125 93.51757812 C192.87888073 93.52299726 190.87495293 93.53011874 188.87103271 93.53881836 C183.42479465 93.55707936 177.97885912 93.54997265 172.53261566 93.53730202 C166.83830437 93.52718877 161.14401932 93.53656303 155.44970703 93.54284668 C145.88634582 93.55012796 136.3231081 93.54052272 126.75976562 93.52148438 C115.69656796 93.49971478 104.63366514 93.50676581 93.57047462 93.52879 C84.0790892 93.54693025 74.58779264 93.54950903 65.09639549 93.53903532 C59.42442363 93.53279285 53.75259044 93.53198551 48.08062744 93.54518127 C42.74866149 93.55671911 37.4170764 93.54875172 32.08515167 93.52560425 C30.1259652 93.52030611 28.16674679 93.52184972 26.20757294 93.53065491 C23.53752314 93.54155043 20.86870154 93.52791984 18.19873047 93.50793457 C17.41935686 93.51685746 16.63998325 93.52578034 15.83699226 93.53497362 C12.35917368 93.48431509 10.35980821 93.26249925 7.5149231 91.18700409 C4.70634667 87.13242988 5.69657571 82.97962256 6.40234375 78.375 C9.41333453 63.89075679 17.18728576 50.12899542 28.0625 40.125 C29.0215625 39.073125 29.0215625 39.073125 30 38 C29.95502158 35.72476911 29.95502158 35.72476911 29 34 C22.62563562 35.17531664 19.33154092 40.13401555 15.72265625 45.19140625 C8.31226668 56.2352473 3.56865548 66.86435532 1 80 C0.67 80 0.34 80 0 80 C0 53.6 0 27.2 0 0 Z " fill="#EEA234" transform="translate(0,0)"/>
<path d="M0 0 C1.21816406 0.03480469 1.21816406 0.03480469 2.4609375 0.0703125 C3.68683594 0.09738281 3.68683594 0.09738281 4.9375 0.125 C5.56398437 0.14820313 6.19046875 0.17140625 6.8359375 0.1953125 C7.1659375 0.8553125 7.4959375 1.5153125 7.8359375 2.1953125 C9.72082886 2.21718628 9.72082886 2.21718628 11.64379883 2.23950195 C16.30131642 2.29742854 20.95834766 2.37466161 25.61547852 2.45776367 C27.63199985 2.4910396 29.64861492 2.51906318 31.6652832 2.54174805 C34.5624185 2.57524506 37.45869268 2.62755794 40.35546875 2.68359375 C41.25868362 2.68998367 42.1618985 2.6963736 43.09248352 2.70295715 C44.353451 2.73264839 44.353451 2.73264839 45.63989258 2.76293945 C46.37935623 2.77404251 47.11881989 2.78514557 47.88069153 2.79658508 C50.42056319 3.31453345 51.30680147 4.12216561 52.8359375 6.1953125 C54.11698226 17.54170892 49.99446403 27.91648584 43.03515625 36.75390625 C36.11442313 44.4367805 28.48343394 47.97948035 18.8359375 51.1953125 C16.92003978 51.29470261 15.00085541 51.33463697 13.08239746 51.34248352 C11.88253204 51.34963882 10.68266663 51.35679413 9.44644165 51.36416626 C8.12800262 51.36685516 6.8095636 51.36954407 5.45117188 51.37231445 C4.04987418 51.37858054 2.64857815 51.38522747 1.24728394 51.39222717 C-3.35856979 51.41326311 -7.96442381 51.42363316 -12.5703125 51.43359375 C-14.15840166 51.43764231 -15.74649066 51.44175926 -17.33457947 51.44594383 C-24.80061539 51.46499913 -32.26664144 51.47922612 -39.73269701 51.4875558 C-48.33453048 51.49731208 -56.93610551 51.52358785 -65.537848 51.56405669 C-72.19535231 51.59429643 -78.85278291 51.60903233 -85.51035452 51.61233681 C-89.48185794 51.61467952 -93.4530854 51.62353672 -97.42451477 51.64879799 C-101.16746004 51.67222001 -104.90995049 51.67625592 -108.65295029 51.66603661 C-110.66545277 51.66531155 -112.67793288 51.68430573 -114.69033813 51.70410156 C-127.74537536 51.62994416 -137.32097658 47.76273448 -147.1640625 39.1953125 C-154.30169189 31.95205223 -159.20692403 20.83438224 -159.4140625 10.6328125 C-159.43984375 9.86839844 -159.465625 9.10398438 -159.4921875 8.31640625 C-159.06428658 5.55033244 -158.3991176 4.86574485 -156.1640625 3.1953125 C-153.42666531 2.81613827 -153.42666531 2.81613827 -150.04624939 2.81004333 C-148.7660643 2.80039551 -147.48587921 2.79074768 -146.16690063 2.7808075 C-144.74529947 2.7851713 -143.32369911 2.78980376 -141.90209961 2.79467773 C-140.40737864 2.78893666 -138.9126623 2.78185448 -137.41795349 2.77352905 C-134.19799949 2.75840328 -130.97821142 2.75264274 -127.75822258 2.75405693 C-122.67039101 2.75608706 -117.58278342 2.73654874 -112.49501038 2.71388245 C-102.61624998 2.67287704 -92.7375071 2.65429189 -82.85868073 2.63771057 C-70.28015438 2.61536459 -57.70167945 2.58191382 -45.12323767 2.53051144 C-40.06170878 2.51054325 -35.00029687 2.50100675 -29.93873012 2.49955928 C-26.79526176 2.49681635 -23.65185838 2.48600284 -20.50841713 2.47304916 C-19.04667129 2.46875574 -17.58491077 2.46791868 -16.12316132 2.47072411 C-14.13373288 2.47410532 -12.14429485 2.46423214 -10.15489197 2.45359802 C-8.48215163 2.45114657 -8.48215163 2.45114657 -6.77561855 2.44864559 C-3.55151617 2.13589266 -3.09994304 0.27977825 0 0 Z " fill="#EEA234" transform="translate(165.1640625,158.8046875)"/>
<path d="M0 0 C74.25 0 148.5 0 225 0 C225 73.92 225 147.84 225 224 C150.75 224 76.5 224 0 224 C0 207.83 0 191.66 0 175 C0.33 175 0.66 175 1 175 C1.14695313 175.75023437 1.29390625 176.50046875 1.4453125 177.2734375 C3.10054352 184.82661814 5.53791634 190.6915369 10 197 C10.44085938 197.63679687 10.88171875 198.27359375 11.3359375 198.9296875 C18.23056957 207.89669453 30.05513326 213.71671801 41 216 C42.89741276 216.09252655 44.79776865 216.13055968 46.69743347 216.13371277 C47.8594931 216.13797775 49.02155273 216.14224274 50.21882629 216.14663696 C51.49005844 216.14618378 52.76129059 216.14573059 54.07104492 216.14526367 C55.42647392 216.14825667 56.78190207 216.15165953 58.1373291 216.15544128 C61.8173358 216.16427371 65.49731923 216.16661915 69.1773355 216.16725707 C71.47901319 216.1679683 73.78068499 216.17010406 76.08236122 216.17275429 C84.11977132 216.18200702 92.15716483 216.18608949 100.19458008 216.18530273 C107.67329286 216.18470279 115.15193332 216.19523843 122.63062781 216.2110464 C129.06052335 216.22415054 135.49039534 216.22948539 141.92030412 216.22884732 C145.75638102 216.22859307 149.59239372 216.23140373 153.42845726 216.24202538 C157.04081288 216.25175417 160.65304356 216.251753 164.26540375 216.24450874 C166.21145233 216.24297549 168.15750102 216.25127723 170.10353088 216.25994873 C185.01394187 216.20677432 198.56957704 212.4263487 209.87109375 202.328125 C218.13782557 193.71157602 223.08950199 182.40486825 223.3125 170.5625 C223.36857422 168.61537109 223.36857422 168.61537109 223.42578125 166.62890625 C222.93576448 162.45252483 221.99320818 160.89147123 219 158 C215.87866256 156.65227097 215.87866256 156.65227097 213 156 C212.21120373 145.99105173 212.21120373 145.99105173 215.4375 141.9375 C216.283125 141.298125 217.12875 140.65875 218 140 C220.59821258 134.80357484 218.53971888 129.23504418 217 124 C217.33 123.34 217.66 122.68 218 122 C218.53365513 116.18654053 218.53365513 116.18654053 216.125 111.0625 C214.17402388 108.96116416 214.17402388 108.96116416 212 108 C211.89192581 104.83882994 212.00123858 102.01720074 213 99 C214.96772449 97.50798913 216.76016756 96.74832728 219.08984375 95.94921875 C221.64578207 94.67908989 222.09118852 93.68971479 223 91 C224.94566456 75.65997097 218.8592603 59.79690608 210.12109375 47.31640625 C208.15981155 44.7947577 206.12310751 42.38647008 204 40 C203.40703125 39.31292969 202.8140625 38.62585937 202.203125 37.91796875 C184.78845892 19.0520805 155.89018144 10.43891382 131 9 C124.96030575 8.78488243 118.91977204 8.7305715 112.87670898 8.70483398 C111.01660518 8.69337676 109.15653259 8.67302563 107.29663086 8.64331055 C90.07965507 8.36987974 72.86882069 9.915131 56.75 16.4375 C55.97406494 16.73897949 55.19812988 17.04045898 54.39868164 17.35107422 C44.58753501 20.61416418 44.58753501 20.61416418 37.8125 27.5625 C37.544375 28.366875 37.27625 29.17125 37 30 C32.08694939 34.03961939 32.08694939 34.03961939 28.53515625 33.91015625 C24.42210802 34.05591913 22.88610133 36.44561011 20.18359375 39.33203125 C10.25855335 51.45869063 4.00974417 64.60870663 1 80 C0.67 80 0.34 80 0 80 C0 53.6 0 27.2 0 0 Z " fill="#FCFCFC" transform="translate(0,0)"/>
<path d="M0 0 C25.50795541 1.58641949 51.60615954 7.22832092 71 25 C71.63164062 25.56332031 72.26328125 26.12664063 72.9140625 26.70703125 C84.73838924 37.82814914 93.6097243 54.56890317 94.4375 70.9375 C94.51684957 73.76763478 94.16551055 74.77204256 92.48141479 77.0915451 C89.04390898 79.73532913 85.96387572 79.55559139 81.80126953 79.50793457 C80.96762941 79.51417453 80.1339893 79.5204145 79.27508736 79.52684355 C76.47737601 79.54281812 73.68053054 79.53015201 70.8828125 79.51757812 C68.87888073 79.52299726 66.87495293 79.53011874 64.87103271 79.53881836 C59.42479465 79.55707936 53.97885912 79.54997265 48.53261566 79.53730202 C42.83830437 79.52718877 37.14401932 79.53656303 31.44970703 79.54284668 C21.88634582 79.55012796 12.3231081 79.54052272 2.75976562 79.52148438 C-8.30343204 79.49971478 -19.36633486 79.50676581 -30.42952538 79.52879 C-39.9209108 79.54693025 -49.41220736 79.54950903 -58.90360451 79.53903532 C-64.57557637 79.53279285 -70.24740956 79.53198551 -75.91937256 79.54518127 C-81.25133851 79.55671911 -86.5829236 79.54875172 -91.91484833 79.52560425 C-93.8740348 79.52030611 -95.83325321 79.52184972 -97.79242706 79.53065491 C-100.46247686 79.54155043 -103.13129846 79.52791984 -105.80126953 79.50793457 C-106.58064314 79.51685746 -107.36001675 79.52578034 -108.16300774 79.53497362 C-111.6999926 79.48345326 -113.63655622 79.27725032 -116.48800659 77.10204315 C-118.95434812 73.67322111 -118.27475706 71.12135583 -118 67 C-117.67 67.99 -117.34 68.98 -117 70 C-94.30376897 70.09345564 -71.60756969 70.16398529 -48.91118526 70.20724869 C-38.37277226 70.22787088 -27.83447883 70.255985 -17.29614258 70.30175781 C-8.11055644 70.34163598 1.07494309 70.36743531 10.26061338 70.37635398 C15.12405235 70.38156705 19.98724356 70.39381263 24.8506031 70.42292023 C29.42982541 70.45010475 34.00869829 70.45843884 38.58799362 70.45243073 C40.26696993 70.4535296 41.94595814 70.46146546 43.62486458 70.4768219 C45.92184959 70.49679811 48.21752471 70.49191244 50.51454163 70.48101807 C51.79859925 70.48470524 53.08265688 70.48839241 54.40562534 70.49219131 C58.90704706 69.87579462 61.25012849 68.53501837 65 66 C67.53445782 62.03302254 67.6209669 57.58063892 67 53 C62.64950701 35.94840331 48.2716422 21.80114631 33.6328125 13.03515625 C22.97720117 6.93281123 11.88997425 3.62505925 0 1 C0 0.67 0 0.34 0 0 Z " fill="#F58B2F" transform="translate(124,14)"/>
<path d="M0 0 C0.91890518 0.20886904 1.83781036 0.41773808 2.78456116 0.63293648 C5.31187427 0.72446223 7.81080842 0.76799571 10.33753967 0.75992012 C11.46571657 0.76226011 11.46571657 0.76226011 12.61668491 0.76464736 C15.13229912 0.76863017 17.64785277 0.76547825 20.16346741 0.76233101 C21.96887752 0.76368625 23.77428735 0.76546688 25.57969666 0.76764107 C30.48041334 0.77220072 35.38110897 0.77043185 40.28182602 0.76726198 C45.40977282 0.76473082 50.53771781 0.76707803 55.66566467 0.76864815 C64.27724023 0.77046763 72.88880721 0.76806933 81.50038147 0.76330757 C91.45751794 0.75786538 101.41463393 0.75962819 111.37176991 0.76513398 C119.91965059 0.7696714 128.46752511 0.77031256 137.01540661 0.76769531 C142.12117028 0.76613601 147.22692432 0.7659293 152.33268738 0.7692318 C157.13267602 0.77211963 161.93263826 0.77011798 166.73262405 0.76433754 C168.49466534 0.76301485 170.25670884 0.76339575 172.01874924 0.7656002 C174.42305709 0.76833095 176.8272802 0.76490696 179.23158264 0.75992012 C180.27852216 0.7632662 180.27852216 0.7632662 181.34661198 0.76667988 C184.20022958 0.75519281 186.81431586 0.62664591 189.61209106 0.03515625 C191.78456116 -0.36706352 191.78456116 -0.36706352 194.09706116 1.07043648 C194.65393616 1.58606148 195.21081116 2.10168648 195.78456116 2.63293648 C195.03456116 7.38293648 195.03456116 7.38293648 192.78456116 9.63293648 C190.87896886 9.53397202 188.97346841 9.43055135 187.06971741 9.30090523 C180.0322681 8.98474694 175.31462032 9.69242089 169.88221741 14.44153023 C166.14013161 18.09934008 162.64719813 21.96478457 159.28651428 25.97473335 C157.03920103 28.45583733 155.71417618 28.64573375 152.34706116 29.25793648 C145.75075543 29.18636716 141.40995608 23.77851865 136.78456116 19.63293648 C134.94108203 18.11982091 133.08753293 16.61885339 131.22206116 15.13293648 C130.01356506 14.15840523 130.01356506 14.15840523 128.78065491 13.16418648 C125.56444258 10.6969551 123.71012458 10.50581795 119.7048645 10.49490547 C118.62943893 10.48945213 117.55401337 10.48399879 116.44599915 10.4783802 C115.2610083 10.47733788 114.07601746 10.47629555 112.8551178 10.47522163 C111.61118759 10.47014091 110.36725739 10.4650602 109.08563232 10.45982552 C106.37697994 10.44910295 103.6683792 10.44010775 100.9597187 10.43370628 C96.67826346 10.42303698 92.39688753 10.40279576 88.11547852 10.38058662 C75.9398613 10.31862397 63.76424878 10.26462034 51.58851624 10.23156929 C44.86616877 10.2132412 38.14395411 10.18432971 31.42170423 10.14356458 C27.86300189 10.12246658 24.30446711 10.10703338 20.74569893 10.10475731 C16.77812608 10.10221677 12.81088251 10.07678464 8.84339905 10.04944038 C7.06894913 10.05394958 7.06894913 10.05394958 5.25865173 10.05854988 C4.18040634 10.04745689 3.10216095 10.03636391 1.99124146 10.02493477 C1.05268846 10.02162462 0.11413546 10.01831448 -0.85285854 10.01490402 C-3.21543884 9.63293648 -3.21543884 9.63293648 -5.04866886 8.26859283 C-6.21543884 6.63293648 -6.21543884 6.63293648 -6.09043884 4.07043648 C-4.92729477 0.83024941 -3.55014393 -0.58820325 0 0 Z " fill="#E8BF3A" transform="translate(17.215438842773438,113.36706352233887)"/>
<path d="M0 0 C2.32421875 1.1171875 2.32421875 1.1171875 4.6875 2.5 C10.95374799 5.91086593 17.02012811 6.04296936 24 5 C26.74976627 3.90160851 29.20425857 2.59732818 31.7734375 1.1328125 C35.29139536 -0.65702571 38.17557739 -0.95244241 42 0 C43.5619455 0.79467403 45.10250793 1.63212993 46.625 2.5 C52.92334034 5.89141403 58.99788807 6.04629259 66 5 C68.74976627 3.90160851 71.20425857 2.59732818 73.7734375 1.1328125 C77.28926491 -0.65594179 80.17751577 -0.95562106 84 0 C85.51906164 0.79805775 87.01780865 1.63538838 88.5 2.5 C94.46111641 5.81587101 100.04545884 5.36666584 106.65625 5.078125 C110 5 110 5 112 6 C117.35166751 6.56333342 119.94898638 6.25809159 124.4375 3.25 C128.39795596 0.85358851 128.39795596 0.85358851 131.0078125 1.48828125 C132.43504074 2.23445571 133.84845901 3.00740894 135.25 3.80078125 C138.96030121 5.41876772 142.56163402 5.81442716 146.5625 6.25 C147.29025635 6.32935791 148.0180127 6.40871582 148.76782227 6.49047852 C150.51076695 6.67139912 152.25526012 6.83730033 154 7 C154 9.31 154 11.62 154 14 C142.78 14.33 131.56 14.66 120 15 C119.67 15.66 119.34 16.32 119 17 C116.03 17 113.06 17 110 17 C109.67 16.34 109.34 15.68 109 15 C37.225 14.505 37.225 14.505 -36 14 C-36 11.36 -36 8.72 -36 6 C-35.28457031 6.05800781 -34.56914063 6.11601562 -33.83203125 6.17578125 C-21.54042403 6.73232233 -11.89222602 -1.71715706 0 0 Z " fill="#892929" transform="translate(53,142)"/>
<path d="M0 0 C62.7 0 125.4 0 190 0 C189 7 189 7 187.39297485 8.91327 C184.06929234 10.42266551 181.36245803 10.38095328 177.71240234 10.38768005 C176.60895005 10.39575836 176.60895005 10.39575836 175.4832058 10.40399987 C173.01727972 10.41831185 170.551888 10.41116797 168.0859375 10.40405273 C166.3184567 10.40975458 164.55097959 10.41671811 162.7835083 10.42485046 C157.98192387 10.44281639 153.18052185 10.44160719 148.37891388 10.43590808 C144.37272762 10.43282156 140.36657667 10.4389026 136.36039543 10.44494683 C126.9114578 10.45900137 117.46261057 10.45742269 108.01367188 10.44604492 C98.25922899 10.434559 88.50506089 10.44864524 78.75065422 10.4754414 C70.3802846 10.49757623 62.01000138 10.5042409 53.63960457 10.49836498 C48.63831122 10.49498934 43.63719409 10.49745084 38.63592529 10.51461601 C33.93431436 10.53004809 29.23311161 10.52617135 24.53151703 10.50731087 C22.80453318 10.50361477 21.07751934 10.50676305 19.35056305 10.51719666 C16.99576648 10.530339 14.64233477 10.51892082 12.28759766 10.50120544 C10.96909821 10.50099616 9.65059875 10.50078688 8.29214478 10.50057125 C5 10 5 10 2.60702515 8.34367466 C1 6 1 6 0 0 Z " fill="#FA4D50" transform="translate(17,99)"/>
<path d="M0 0 C1.06248962 -0.0143811 2.12497925 -0.02876221 3.21966553 -0.0435791 C4.98369217 -0.05939529 4.98369217 -0.05939529 6.78335571 -0.07553101 C8.01428955 -0.09013367 9.24522339 -0.10473633 10.51345825 -0.11978149 C21.89985458 -0.24602865 33.28700993 -0.31601071 44.67397118 -0.36762428 C53.08596949 -0.40644925 61.49661946 -0.47462175 69.9080261 -0.58217204 C75.82661827 -0.65527761 81.74484436 -0.69349961 87.6638695 -0.70665014 C91.1955827 -0.71548047 94.72563202 -0.7394341 98.25684738 -0.80131912 C102.20877539 -0.8697811 106.15893612 -0.86602725 110.11148071 -0.85678101 C111.26725616 -0.88756744 112.42303162 -0.91835388 113.61383057 -0.95007324 C124.87158718 -0.80745684 130.54763589 5.56338976 138.09439087 13.18081665 C132.39878835 13.73648519 129.80545642 12.05980116 125.09439087 9.18081665 C117.74106721 6.81993359 110.83809493 7.74284987 104.09439087 11.18081665 C99.47889338 13.4885654 95.17246941 13.89901411 90.09439087 13.18081665 C87.87248397 12.32979165 85.88264383 11.33703594 83.82095337 10.1534729 C79.16251264 7.5291477 74.28427503 7.72265336 69.09439087 8.18081665 C66.53769309 8.93653922 64.49563203 9.95665449 62.09439087 11.18081665 C57.47889338 13.4885654 53.17246941 13.89901411 48.09439087 13.18081665 C45.87248397 12.32979165 43.88264383 11.33703594 41.82095337 10.1534729 C36.89004492 7.37565344 31.57548342 7.54316479 26.09439087 8.18081665 C23.94265024 8.94244761 21.81660171 9.77983044 19.71939087 10.68081665 C12.57585145 13.6693534 5.50951054 14.76596986 -2.05404663 12.5519104 C-3.71810913 11.68081665 -3.71810913 11.68081665 -5.90560913 9.18081665 C-6.45763072 6.27988685 -6.2498348 4.18049749 -5.90560913 1.18081665 C-4.24836498 -0.4764275 -2.28202755 0.02645818 0 0 Z " fill="#9CDF54" transform="translate(16.905609130859375,128.81918334960938)"/>
<path d="M0 0 C5.78406969 -0.07410115 11.56786371 -0.12857885 17.35229492 -0.16479492 C19.32044283 -0.17989082 21.28855706 -0.20036948 23.2565918 -0.22631836 C26.08390612 -0.26266649 28.9107761 -0.27971814 31.73828125 -0.29296875 C33.06029289 -0.31619453 33.06029289 -0.31619453 34.40901184 -0.33988953 C35.22963608 -0.34011612 36.05026031 -0.34034271 36.89575195 -0.34057617 C37.61745071 -0.34723801 38.33914948 -0.35389984 39.0827179 -0.36076355 C41.61595086 0.1158998 42.47985604 0.94148579 44 3 C45.28104476 14.34639642 41.15852653 24.72117334 34.19921875 33.55859375 C27.27848563 41.241468 19.64749644 44.78416785 10 48 C8.60560336 48.06665376 7.20830125 48.08538199 5.8125 48.0625 C4.554375 48.041875 3.29625 48.02125 2 48 C2.680625 47.484375 3.36125 46.96875 4.0625 46.4375 C13.10483928 38.9342823 19.60228631 30.99433376 21 19 C21.4758365 13.00446014 21.73290282 7.0096866 22 1 C14.74 1 7.48 1 0 1 C0 0.67 0 0.34 0 0 Z " fill="#F88D30" transform="translate(174,162)"/>
<path d="M0 0 C1.32 1.65 2.64 3.3 4 5 C5.85041705 6.18256497 5.85041705 6.18256497 7.75 6.8125 C8.8225 7.204375 9.895 7.59625 11 8 C11.65261307 11.02398929 12.14452798 13.90067769 12 17 C9.625 19.4375 9.625 19.4375 7 21 C5.17523974 24.64952051 5.7200551 28.79623695 6.625 32.6875 C7.09243867 35.57003847 6.28311332 36.43377335 5 39 C4.51565873 44.23088571 5.20199775 47.54392234 8 52 C8.99 52.66 9.98 53.32 11 54 C11.29296875 56.6015625 11.29296875 56.6015625 11.1875 59.625 C11.16042969 60.62789062 11.13335937 61.63078125 11.10546875 62.6640625 C11.07066406 63.43492187 11.03585937 64.20578125 11 65 C9.30729167 65.65104167 7.61458333 66.30208333 5.921875 66.953125 C3.4299727 68.19307673 3.4299727 68.19307673 0 72 C0 48.24 0 24.48 0 0 Z " fill="#FAFAFA" transform="translate(0,91)"/>
<path d="M0 0 C7.26 0 14.52 0 22 0 C21 7 21 7 19.39465714 8.91495228 C16.1495391 10.38535398 13.17954185 10.4050964 9.68548584 10.36076355 C8.94702872 10.36332682 8.20857159 10.3658901 7.44773698 10.36853105 C4.97242309 10.37347388 2.49771867 10.35696819 0.02246094 10.34057617 C-1.75150539 10.33973001 -3.52547276 10.34020484 -5.29943848 10.34190369 C-10.11732159 10.34276547 -14.93498126 10.32510999 -19.75281239 10.30418181 C-24.78699935 10.28544561 -29.82119126 10.28366699 -34.85540771 10.28010559 C-44.38930238 10.27077614 -53.92309401 10.24615015 -63.45694327 10.21605712 C-74.31050305 10.18254114 -85.16406771 10.16603415 -96.01766634 10.15097082 C-118.34516804 10.11960141 -140.67257825 10.06682339 -163 10 C-163 9.67 -163 9.34 -163 9 C-109.54 8.67 -56.08 8.34 -1 8 C-0.67 5.36 -0.34 2.72 0 0 Z " fill="#E63E45" transform="translate(185,99)"/>
<path d="M0 0 C0.76699219 0.00193359 1.53398437 0.00386719 2.32421875 0.00585938 C4.546875 0.05859375 4.546875 0.05859375 8.25 0.5625 C10.25 3.5625 10.25 3.5625 10.125 6.5625 C9.11937088 10.01037127 8.33107932 10.84072038 5.25 12.5625 C-0.26214873 14.39988291 -7.35193023 14.60619286 -12.9375 12.890625 C-14.5625 12.0625 -14.5625 12.0625 -16.75 10.5625 C-13.62742668 2.44380936 -8.32572711 -0.40700381 0 0 Z " fill="#90C949" transform="translate(203.75,128.4375)"/>
<path d="M0 0 C2.10375 0.7115625 2.10375 0.7115625 4.25 1.4375 C10.11856132 3.21992837 15.89745746 3.69592142 22 4 C22 6.31 22 8.62 22 11 C11.11 11 0.22 11 -11 11 C-11 10.67 -11 10.34 -11 10 C-7.37 10 -3.74 10 0 10 C0 6.7 0 3.4 0 0 Z " fill="#711C1C" transform="translate(185,145)"/>
<path d="M0 0 C0.66 0.66 1.32 1.32 2 2 C1.67028521 5.29714793 1.3773161 6.6226839 -1 9 C-2.97119141 9.31884766 -2.97119141 9.31884766 -5.3515625 9.4140625 C-6.20234375 9.45273438 -7.053125 9.49140625 -7.9296875 9.53125 C-8.81914062 9.5621875 -9.70859375 9.593125 -10.625 9.625 C-11.97078125 9.68300781 -11.97078125 9.68300781 -13.34375 9.7421875 C-15.5622927 9.83659357 -17.78082403 9.92216748 -20 10 C-20 7.69 -20 5.38 -20 3 C-18.96939453 2.92652344 -18.96939453 2.92652344 -17.91796875 2.8515625 C-16.56638672 2.73941406 -16.56638672 2.73941406 -15.1875 2.625 C-14.29417969 2.55539063 -13.40085938 2.48578125 -12.48046875 2.4140625 C-9.75601501 2.13354964 -9.75601501 2.13354964 -7 0 C-4.29393021 -1.35303489 -2.8671629 -0.7884698 0 0 Z " fill="#DEB237" transform="translate(211,114)"/>
</svg>
